<svg width="60.000000" height="60.000000" viewBox="0 0 60 60" fill="none" xmlns="http://www.w3.org/2000/svg" xmlns:xlink="http://www.w3.org/1999/xlink">
	<desc>
			Created with Pixso.
	</desc>
	<defs/>
	<path d="M27.18 59.94C27.16 59.91 26.8 59.87 26.39 59.86C25.98 59.85 25.25 59.78 24.77 59.7C20.57 59 16.32 57.47 13.48 55.65C12.96 55.31 12.84 55.18 12.93 55.04C12.99 54.94 13.2 54.99 14.41 55.41C14.99 55.61 15.89 55.86 16.41 55.98C17.29 56.17 17.47 56.18 18.99 56.18C21.27 56.18 22.06 56.05 24.54 55.26C29.28 53.76 30.47 53.75 35.17 55.2C37.88 56.04 38.94 56.22 41.05 56.22C42.58 56.22 44.02 55.95 45.75 55.34C46.21 55.18 46.67 55.03 46.77 55.01C46.98 54.97 47.08 55.06 47.02 55.22C46.92 55.47 44.5 56.82 43.02 57.45C40.13 58.68 35.64 59.83 33.57 59.86C33.15 59.86 32.78 59.9 32.76 59.93C32.71 60.01 27.23 60.02 27.18 59.94ZM16.34 54.07C12.57 53.51 9.3 51.81 6.52 48.95C5 47.39 3.88 45.77 2.75 43.51C1.27 40.56 0.22 36.75 0.04 33.7C-0.02 32.66 -0.02 26.88 0.04 25.89C0.17 23.88 0.91 20.92 1.92 18.36C2.31 17.37 3.34 15.23 3.83 14.38C3.98 14.12 4.14 13.84 4.19 13.76C5.18 12.04 7.09 9.62 8.78 7.94C10.31 6.43 11.77 5.25 13.54 4.1C14.08 3.75 14.6 3.41 14.7 3.34C15.07 3.09 17.31 1.95 18.13 1.6C19.94 0.83 22.01 0.15 22.63 0.13C22.83 0.12 23.01 0.09 23.03 0.06C23.05 0.02 23.24 0 23.45 0C23.77 0 23.83 0.02 23.84 0.13C23.85 0.25 23.73 0.31 23.22 0.47C21.06 1.13 18.59 2.31 16.2 3.81C14.41 4.93 12.3 6.69 10.56 8.52C6.11 13.21 3.52 18.85 2.73 25.57C2.57 26.88 2.55 30.36 2.69 31.59C3.54 39.18 6.82 45.18 11.68 48.08C13.5 49.16 15.49 49.73 17.72 49.81C19.52 49.87 20.68 49.63 23.94 48.53C27.01 47.49 27.84 47.27 29.19 47.14C30.09 47.06 31.15 47.14 32.19 47.36C32.81 47.5 35.4 48.3 36.8 48.8C38.97 49.57 40.57 49.86 42.22 49.81C44.92 49.71 47.28 48.89 49.43 47.3C53.64 44.18 56.49 38.46 57.24 31.59C57.37 30.48 57.37 27.08 57.24 25.93C56.7 20.85 55.21 16.54 52.61 12.6C50.06 8.73 46.45 5.32 42.44 3.01C40.79 2.07 38.31 0.96 36.71 0.47C36.21 0.31 36.08 0.24 36.08 0.13C36.08 0.02 36.13 0 36.43 0C36.63 0 36.81 0.02 36.83 0.06C36.85 0.09 37.05 0.12 37.28 0.13C38.3 0.17 41.55 1.38 43.76 2.54C50.82 6.25 55.99 12.3 58.59 19.93C59.27 21.92 59.83 24.48 59.85 25.71C59.86 26.09 59.9 26.45 59.95 26.51C60.01 26.59 60.01 26.6 59.93 26.55C59.85 26.5 59.85 26.52 59.92 26.65C60.02 26.83 59.98 32.17 59.87 33.96C59.78 35.29 59.54 36.63 59.09 38.39C57.56 44.26 54.4 48.94 50.11 51.67C48.58 52.64 46.33 53.55 44.58 53.91C43.84 54.06 43.54 54.08 41.96 54.08C39.59 54.08 38.44 53.88 35.2 52.93C31.8 51.92 31.36 51.83 29.97 51.83C28.58 51.83 28.13 51.93 24.73 52.93C21.61 53.85 20.52 54.04 18.26 54.08C17.32 54.09 16.46 54.09 16.34 54.07ZM16.59 47.36C15.14 47.2 13.96 46.85 12.56 46.16C10.66 45.23 9.06 43.76 7.69 41.69C7.04 40.71 6.46 39.67 6.51 39.55C6.59 39.34 6.87 39.44 7.28 39.83C8.19 40.67 10.27 42.2 10.51 42.2C10.55 42.2 10.63 42.25 10.7 42.3C10.85 42.44 12.06 42.97 12.74 43.19C14.09 43.63 15.83 43.84 17.28 43.72C18.99 43.59 20.21 43.3 22.12 42.58C25.13 41.45 26.73 41.05 28.97 40.89C30.64 40.77 32.6 40.96 34.37 41.41C35.22 41.63 36.17 41.94 37.6 42.47C39.15 43.05 40.02 43.31 41.03 43.5C44.42 44.15 47.54 43.55 50.33 41.71C51.17 41.16 52.39 40.2 52.83 39.74C53.13 39.43 53.42 39.35 53.5 39.55C53.57 39.74 52.49 41.57 51.64 42.67C51.18 43.28 50.17 44.32 49.56 44.81C48.09 46.02 46.21 46.88 44.25 47.26C43.35 47.43 41.19 47.43 40.18 47.26C39.07 47.07 37.9 46.74 36.58 46.24C33.66 45.12 32.18 44.8 30 44.8C29.07 44.8 28.55 44.83 27.87 44.95C26.26 45.23 25.62 45.42 22.87 46.44C21.86 46.82 20.87 47.08 19.86 47.25C19.03 47.38 17.34 47.44 16.59 47.36Z" fill="#FFFFFF" fill-opacity="1.000000" fill-rule="nonzero"/>
	<path d="M24.92 35.5L17.43 17.62C16.9 16.39 16.36 15.53 15.83 15.06C15.3 14.58 14.69 14.3 14 14.22L14 13.57C14.09 13.57 14.32 13.56 14.69 13.54C15.04 13.51 15.29 13.5 15.45 13.5C16.26 13.5 17.09 13.59 17.95 13.76C18.8 13.91 19.61 14.28 20.37 14.86C21.14 15.45 21.78 16.36 22.32 17.62L27 28.8L30.12 20.5L28.9 17.62C28.37 16.39 27.79 15.53 27.17 15.06C26.57 14.58 25.92 14.3 25.23 14.22L25.23 13.57C25.32 13.57 25.53 13.56 25.85 13.54C26.18 13.51 26.42 13.5 26.58 13.5C27.39 13.5 28.22 13.59 29.08 13.76C29.93 13.93 30.74 14.31 31.5 14.9C32.27 15.46 32.91 16.36 33.44 17.62L38.4 29.41L44.33 13.83L46 13.83L37.78 35.5L36.39 35.5L31.05 22.8L26.3 35.5L24.92 35.5Z" fill="#FFFFFF" fill-opacity="1.000000" fill-rule="evenodd"/>
</svg>
